<?xml version="1.0" encoding="UTF-8"?>
<svg xmlns="http://www.w3.org/2000/svg" xmlns:xlink="http://www.w3.org/1999/xlink" width="24pt" height="24pt" viewBox="0 0 24 24" version="1.1">
<g id="surface1">
<path style=" stroke:none;fill-rule:nonzero;fill:rgb(13.72549%,12.156863%,12.54902%);fill-opacity:1;" d="M 5 18 L 19 18 C 19.550781 18 20 18.449219 20 19 C 20 19.550781 19.550781 20 19 20 L 5 20 C 4.449219 20 4 19.550781 4 19 C 4 18.449219 4.449219 18 5 18 Z M 5 18 "/>
<path style=" stroke:none;fill-rule:nonzero;fill:rgb(13.72549%,12.156863%,12.54902%);fill-opacity:1;" d="M 4 19 L 4 17 C 4 16.449219 4.449219 16 5 16 C 5.550781 16 6 16.449219 6 17 L 6 19 C 6 19.550781 5.550781 20 5 20 C 4.449219 20 4 19.550781 4 19 Z M 4 19 "/>
<path style=" stroke:none;fill-rule:nonzero;fill:rgb(13.72549%,12.156863%,12.54902%);fill-opacity:1;" d="M 18 19 L 18 17 C 18 16.449219 18.449219 16 19 16 C 19.550781 16 20 16.449219 20 17 L 20 19 C 20 19.550781 19.550781 20 19 20 C 18.449219 20 18 19.550781 18 19 Z M 18 19 "/>
<path style=" stroke:none;fill-rule:nonzero;fill:rgb(13.72549%,12.156863%,12.54902%);fill-opacity:1;" d="M 12 15 C 11.792969 15 11.589844 14.9375 11.421875 14.820312 L 7.421875 12 C 6.972656 11.679688 6.863281 11.058594 7.179688 10.609375 C 7.332031 10.390625 7.566406 10.242188 7.828125 10.199219 C 8.09375 10.152344 8.363281 10.214844 8.578125 10.371094 L 12 12.761719 L 15.398438 10.199219 C 15.84375 9.867188 16.46875 9.957031 16.800781 10.398438 C 17.132812 10.84375 17.042969 11.46875 16.601562 11.800781 L 12.601562 14.800781 C 12.425781 14.929688 12.214844 15 12 15 Z M 12 15 "/>
<path style=" stroke:none;fill-rule:nonzero;fill:rgb(13.72549%,12.156863%,12.54902%);fill-opacity:1;" d="M 12 13 C 11.449219 13 11 12.550781 11 12 L 11 4 C 11 3.449219 11.449219 3 12 3 C 12.550781 3 13 3.449219 13 4 L 13 12 C 13 12.550781 12.550781 13 12 13 Z M 12 13 "/>
</g>
</svg>
